<?xml version="1.0" standalone="no"?>
<!DOCTYPE svg PUBLIC "-//W3C//DTD SVG 20010904//EN"
 "http://www.w3.org/TR/2001/REC-SVG-20010904/DTD/svg10.dtd">
<svg version="1.0" xmlns="http://www.w3.org/2000/svg"
 width="152.000000pt" height="152.000000pt" viewBox="0 0 152.000000 152.000000"
 preserveAspectRatio="xMidYMid meet">
<metadata>
Created by potrace 1.11, written by Peter Selinger 2001-2013
</metadata>
<g transform="translate(0.000000,152.000000) scale(0.100000,-0.100000)"
fill="#000000" stroke="none">
<path d="M0 760 l0 -760 760 0 760 0 0 760 0 760 -760 0 -760 0 0 -760z m928
534 c2 -1 -12 -36 -31 -77 -33 -72 -35 -74 -66 -69 -17 2 -31 8 -31 12 0 4 16
41 35 83 35 76 35 76 63 65 15 -7 28 -13 30 -14z m156 -64 l25 -9 -36 -81
c-20 -44 -39 -80 -42 -80 -3 1 -16 9 -29 20 l-23 19 32 70 c17 39 35 71 40 71
4 0 19 -4 33 -10z m-159 -124 c112 -51 182 -128 217 -238 23 -76 23 -140 0
-216 -35 -110 -104 -186 -219 -240 -52 -24 -70 -27 -163 -27 -99 0 -110 2
-172 33 -88 43 -152 106 -191 190 -28 59 -32 78 -32 152 0 75 4 93 32 152 38
82 100 145 176 183 80 39 110 45 208 41 67 -3 99 -9 144 -30z m-407 -666 l23
-19 -32 -70 c-33 -73 -42 -81 -73 -58 -17 12 -16 17 15 90 18 42 36 77 39 77
3 -1 15 -9 28 -20z m202 -77 c0 -5 -15 -41 -32 -80 -33 -73 -43 -82 -78 -63
-18 10 -17 13 12 80 29 67 33 70 64 70 19 0 34 -3 34 -7z"/>
<path d="M690 1066 c-105 -23 -183 -82 -231 -176 -20 -37 -24 -60 -24 -130 0
-73 4 -92 27 -135 126 -239 470 -239 596 0 23 43 27 62 27 135 0 73 -4 92 -27
135 -70 133 -222 204 -368 171z m185 -121 c67 -34 98 -71 97 -114 0 -16 -23
-81 -51 -143 -27 -62 -53 -130 -56 -150 -4 -21 -10 -38 -13 -38 -4 0 -26 7
-49 16 -32 13 -43 22 -43 38 0 21 -4 22 -57 18 -112 -7 -200 72 -174 158 6 21
26 51 43 66 31 25 37 26 103 20 38 -3 92 -10 118 -15 46 -8 49 -7 60 17 10 21
8 27 -12 43 -33 27 -69 34 -104 21 -25 -9 -35 -8 -68 11 -21 12 -39 25 -39 29
0 3 14 18 32 33 29 24 38 27 93 23 42 -2 80 -13 120 -33z"/>
<path d="M653 729 c-17 -17 -16 -40 3 -67 11 -16 25 -22 55 -22 22 0 48 4 58
10 19 10 48 67 39 76 -3 3 -37 7 -74 10 -50 4 -73 2 -81 -7z"/>
</g>
</svg>
